<svg width="614" height="292" viewBox="0 0 614 292" fill="none" xmlns="http://www.w3.org/2000/svg">
<g clip-path="url(#clip0)">
<path d="M17.6 265.607V280.391C17.6 281.97 17.28 283.399 16.64 284.679C16 285.938 15.0187 286.94 13.696 287.687C12.3947 288.412 10.7307 288.775 8.70399 288.775C5.86665 288.775 3.70132 288.007 2.208 286.471C0.736 284.914 0 282.866 0 280.327V265.607H2.88V280.423C2.88 282.279 3.37066 283.719 4.35197 284.743C5.35466 285.767 6.85866 286.279 8.86397 286.279C10.9333 286.279 12.4267 285.735 13.344 284.647C14.2827 283.538 14.752 282.119 14.752 280.391V265.607H17.6Z" fill="black"/>
<path d="M84.5156 259.9H88.7539L87.543 269.295H85.707L84.5156 259.9Z" fill="black"/>
<path d="M111.119 280.815C111.119 283.348 110.199 285.322 108.359 286.735C106.519 288.148 104.039 288.855 100.919 288.855C99.3191 288.855 97.8391 288.735 96.4791 288.495C95.1191 288.255 93.9858 287.922 93.0791 287.495V284.055C94.0391 284.482 95.2258 284.868 96.6391 285.215C98.0791 285.562 99.5591 285.735 101.079 285.735C103.212 285.735 104.812 285.322 105.879 284.495C106.972 283.668 107.519 282.548 107.519 281.135C107.519 280.202 107.319 279.415 106.919 278.775C106.519 278.135 105.826 277.548 104.839 277.015C103.879 276.455 102.532 275.868 100.799 275.255C98.3724 274.375 96.5324 273.295 95.2791 272.015C94.0524 270.735 93.4391 268.988 93.4391 266.775C93.4391 265.255 93.8258 263.962 94.5991 262.895C95.3724 261.802 96.4391 260.962 97.7991 260.375C99.1857 259.789 100.772 259.495 102.559 259.495C104.132 259.495 105.572 259.642 106.879 259.935C108.186 260.229 109.372 260.615 110.439 261.095L109.319 264.175C108.332 263.749 107.252 263.388 106.079 263.095C104.932 262.802 103.732 262.655 102.479 262.655C100.692 262.655 99.3458 263.042 98.4391 263.815C97.5324 264.562 97.0791 265.562 97.0791 266.815C97.0791 267.775 97.2791 268.575 97.6791 269.215C98.0791 269.855 98.7324 270.428 99.6391 270.935C100.546 271.442 101.772 271.988 103.319 272.575C104.999 273.188 106.412 273.855 107.559 274.575C108.732 275.268 109.612 276.108 110.199 277.095C110.812 278.082 111.119 279.322 111.119 280.815V280.815Z" fill="black"/>
<path d="M114.796 274.1C114.796 269.49 115.564 265.903 117.101 263.338C118.65 260.773 121.026 259.49 124.229 259.49C127.211 259.49 129.509 260.766 131.124 263.318C132.752 265.858 133.565 269.464 133.565 274.139C133.565 278.826 132.745 282.452 131.104 285.018C129.464 287.57 127.159 288.846 124.19 288.846C121.013 288.846 118.65 287.544 117.101 284.939C115.564 282.335 114.796 278.722 114.796 274.1V274.1ZM129.405 274.139C129.405 269.998 129.008 266.886 128.214 264.803C127.42 262.706 126.091 261.658 124.229 261.658C122.341 261.658 120.987 262.706 120.167 264.803C119.36 266.886 118.956 269.998 118.956 274.139C118.956 278.279 119.36 281.411 120.167 283.533C120.987 285.643 122.328 286.697 124.19 286.697C126.065 286.697 127.4 285.643 128.194 283.533C129.002 281.424 129.405 278.292 129.405 274.139V274.139Z" fill="black"/>
<path d="M137.159 274.1C137.159 269.49 137.927 265.903 139.464 263.338C141.013 260.773 143.39 259.49 146.593 259.49C149.575 259.49 151.873 260.766 153.487 263.318C155.115 265.858 155.929 269.464 155.929 274.139C155.929 278.826 155.108 282.452 153.468 285.018C151.827 287.57 149.522 288.846 146.554 288.846C143.377 288.846 141.013 287.544 139.464 284.939C137.927 282.335 137.159 278.722 137.159 274.1ZM151.769 274.139C151.769 269.998 151.371 266.886 150.577 264.803C149.783 262.706 148.455 261.658 146.593 261.658C144.705 261.658 143.351 262.706 142.53 264.803C141.723 266.886 141.319 269.998 141.319 274.139C141.319 278.279 141.723 281.411 142.53 283.533C143.351 285.643 144.692 286.697 146.554 286.697C148.429 286.697 149.763 285.643 150.558 283.533C151.365 281.424 151.769 278.292 151.769 274.139V274.139Z" fill="black"/>
<path d="M159.522 274.1C159.522 269.49 160.291 265.903 161.827 263.338C163.377 260.773 165.753 259.49 168.956 259.49C171.938 259.49 174.236 260.766 175.851 263.318C177.478 265.858 178.292 269.464 178.292 274.139C178.292 278.826 177.472 282.452 175.831 285.018C174.19 287.57 171.886 288.846 168.917 288.846C165.74 288.846 163.377 287.544 161.827 284.939C160.291 282.335 159.522 278.722 159.522 274.1ZM174.132 274.139C174.132 269.998 173.735 266.886 172.94 264.803C172.146 262.706 170.818 261.658 168.956 261.658C167.068 261.658 165.714 262.706 164.894 264.803C164.086 266.886 163.683 269.998 163.683 274.139C163.683 278.279 164.086 281.411 164.894 283.533C165.714 285.643 167.055 286.697 168.917 286.697C170.792 286.697 172.127 285.643 172.921 283.533C173.728 281.424 174.132 278.292 174.132 274.139V274.139Z" fill="black"/>
<path d="M181.886 274.1C181.886 269.49 182.654 265.903 184.19 263.338C185.74 260.773 188.116 259.49 191.319 259.49C194.301 259.49 196.599 260.766 198.214 263.318C199.841 265.858 200.655 269.464 200.655 274.139C200.655 278.826 199.835 282.452 198.194 285.018C196.554 287.57 194.249 288.846 191.28 288.846C188.103 288.846 185.74 287.544 184.19 284.939C182.654 282.335 181.886 278.722 181.886 274.1ZM196.495 274.139C196.495 269.998 196.098 266.886 195.304 264.803C194.509 262.706 193.181 261.658 191.319 261.658C189.431 261.658 188.077 262.706 187.257 264.803C186.45 266.886 186.046 269.998 186.046 274.139C186.046 278.279 186.45 281.411 187.257 283.533C188.077 285.643 189.418 286.697 191.28 286.697C193.155 286.697 194.49 285.643 195.284 283.533C196.091 281.424 196.495 278.292 196.495 274.139Z" fill="black"/>
<path d="M218.932 288.455L209.532 263.415H209.372C209.452 264.242 209.519 265.362 209.572 266.775C209.625 268.162 209.652 269.615 209.652 271.135V288.455H206.332V259.895H211.652L220.452 283.295H220.612L229.572 259.895H234.852V288.455H231.292V270.895C231.292 269.508 231.319 268.135 231.372 266.775C231.452 265.415 231.519 264.308 231.572 263.455H231.412L221.892 288.455H218.932Z" fill="black"/>
<path d="M250.052 273.935L257.492 259.895H261.372L251.852 277.375V288.455H248.252V277.535L238.732 259.895H242.652L250.052 273.935Z" fill="black"/>
<path d="M263.168 274.1C263.168 269.49 263.937 265.903 265.473 263.338C267.023 260.773 269.399 259.49 272.602 259.49C275.584 259.49 277.882 260.766 279.497 263.318C281.124 265.858 281.938 269.464 281.938 274.139C281.938 278.826 281.118 282.452 279.477 285.018C277.836 287.57 275.532 288.846 272.563 288.846C269.386 288.846 267.023 287.544 265.473 284.939C263.937 282.335 263.168 278.722 263.168 274.1ZM277.778 274.139C277.778 269.998 277.381 266.886 276.586 264.803C275.792 262.706 274.464 261.658 272.602 261.658C270.714 261.658 269.36 262.706 268.54 264.803C267.732 266.886 267.329 269.998 267.329 274.139C267.329 278.279 267.732 281.411 268.54 283.533C269.36 285.643 270.701 286.697 272.563 286.697C274.438 286.697 275.773 285.643 276.567 283.533C277.374 281.424 277.778 278.292 277.778 274.139Z" fill="black"/>
<path d="M322.563 274.1C322.563 269.49 323.331 265.903 324.868 263.338C326.417 260.773 328.793 259.49 331.997 259.49C334.978 259.49 337.276 260.766 338.891 263.318C340.519 265.858 341.332 269.464 341.332 274.139C341.332 278.826 340.512 282.452 338.872 285.018C337.231 287.57 334.926 288.846 331.957 288.846C328.78 288.846 326.417 287.544 324.868 284.939C323.331 282.335 322.563 278.722 322.563 274.1ZM337.172 274.139C337.172 269.998 336.775 266.886 335.981 264.803C335.187 262.706 333.859 261.658 331.997 261.658C330.109 261.658 328.754 262.706 327.934 264.803C327.127 266.886 326.723 269.998 326.723 274.139C326.723 278.279 327.127 281.411 327.934 283.533C328.754 285.643 330.096 286.697 331.957 286.697C333.832 286.697 335.167 285.643 335.961 283.533C336.769 281.424 337.172 278.292 337.172 274.139Z" fill="black"/>
<path d="M354.569 259.895C358.303 259.895 361.023 260.628 362.729 262.095C364.436 263.562 365.289 265.628 365.289 268.295C365.289 269.868 364.929 271.348 364.209 272.735C363.516 274.095 362.329 275.202 360.649 276.055C358.996 276.908 356.743 277.335 353.889 277.335H350.609V288.455H347.009V259.895H354.569ZM354.249 262.975H350.609V274.255H353.489C356.209 274.255 358.236 273.815 359.569 272.935C360.903 272.055 361.569 270.562 361.569 268.455C361.569 266.615 360.983 265.242 359.809 264.335C358.636 263.429 356.783 262.975 354.249 262.975Z" fill="black"/>
<path d="M379.089 259.895C382.636 259.895 385.249 260.575 386.929 261.935C388.636 263.268 389.489 265.295 389.489 268.015C389.489 269.535 389.209 270.802 388.649 271.815C388.089 272.828 387.369 273.642 386.489 274.255C385.636 274.842 384.729 275.308 383.769 275.655L391.609 288.455H387.409L380.489 276.655H374.809V288.455H371.209V259.895H379.089ZM378.889 263.015H374.809V273.615H379.089C381.409 273.615 383.102 273.162 384.169 272.255C385.236 271.322 385.769 269.962 385.769 268.175C385.769 266.308 385.209 264.988 384.089 264.215C382.969 263.415 381.236 263.015 378.889 263.015V263.015Z" fill="black"/>
<path d="M394.006 274.1C394.006 269.49 394.774 265.903 396.311 263.338C397.86 260.773 400.236 259.49 403.439 259.49C406.421 259.49 408.719 260.766 410.334 263.318C411.962 265.858 412.775 269.464 412.775 274.139C412.775 278.826 411.955 282.452 410.314 285.018C408.674 287.57 406.369 288.846 403.4 288.846C400.223 288.846 397.86 287.544 396.311 284.939C394.774 282.335 394.006 278.722 394.006 274.1ZM408.615 274.139C408.615 269.998 408.218 266.886 407.424 264.803C406.63 262.706 405.301 261.658 403.439 261.658C401.551 261.658 400.197 262.706 399.377 264.803C398.57 266.886 398.166 269.998 398.166 274.139C398.166 278.279 398.57 281.411 399.377 283.533C400.197 285.643 401.538 286.697 403.4 286.697C405.275 286.697 406.61 285.643 407.404 283.533C408.212 281.424 408.615 278.292 408.615 274.139Z" fill="black"/>
<path d="M441.332 273.895C441.332 278.722 440.012 282.362 437.372 284.815C434.759 287.242 431.105 288.455 426.412 288.455H418.452V259.895H427.252C430.132 259.895 432.625 260.429 434.732 261.495C436.839 262.562 438.465 264.135 439.612 266.215C440.759 268.268 441.332 270.828 441.332 273.895V273.895ZM437.532 274.015C437.532 270.202 436.585 267.415 434.692 265.655C432.825 263.868 430.172 262.975 426.732 262.975H422.052V285.375H425.932C433.665 285.375 437.532 281.588 437.532 274.015V274.015Z" fill="black"/>
<path d="M469.372 259.895V278.375C469.372 280.348 468.972 282.135 468.172 283.735C467.372 285.308 466.145 286.562 464.492 287.495C462.865 288.402 460.785 288.855 458.252 288.855C454.705 288.855 451.999 287.895 450.132 285.975C448.292 284.028 447.372 281.468 447.372 278.295V259.895H450.972V278.415C450.972 280.735 451.585 282.535 452.812 283.815C454.065 285.095 455.945 285.735 458.452 285.735C461.039 285.735 462.905 285.055 464.052 283.695C465.225 282.308 465.812 280.535 465.812 278.375V259.895H469.372Z" fill="black"/>
<path d="M489.132 262.655C486.065 262.655 483.652 263.682 481.892 265.735C480.132 267.788 479.252 270.602 479.252 274.175C479.252 277.722 480.065 280.535 481.692 282.615C483.345 284.668 485.812 285.695 489.092 285.695C490.345 285.695 491.532 285.588 492.652 285.375C493.772 285.162 494.865 284.895 495.932 284.575V287.695C494.865 288.095 493.759 288.388 492.612 288.575C491.492 288.762 490.145 288.855 488.572 288.855C485.665 288.855 483.239 288.255 481.292 287.055C479.345 285.855 477.879 284.148 476.892 281.935C475.932 279.722 475.452 277.122 475.452 274.135C475.452 271.255 475.972 268.722 477.012 266.535C478.079 264.322 479.639 262.602 481.692 261.375C483.745 260.122 486.239 259.495 489.172 259.495C492.185 259.495 494.812 260.055 497.052 261.175L495.612 264.215C494.732 263.815 493.745 263.455 492.652 263.135C491.585 262.815 490.412 262.655 489.132 262.655Z" fill="black"/>
<path d="M500.089 274.1C500.089 269.49 500.857 265.903 502.394 263.338C503.943 260.773 506.319 259.49 509.522 259.49C512.504 259.49 514.802 260.766 516.417 263.318C518.045 265.858 518.858 269.464 518.858 274.139C518.858 278.826 518.038 282.452 516.397 285.018C514.757 287.57 512.452 288.846 509.483 288.846C506.306 288.846 503.943 287.544 502.394 284.939C500.857 282.335 500.089 278.722 500.089 274.1V274.1ZM514.698 274.139C514.698 269.998 514.301 266.886 513.507 264.803C512.713 262.706 511.384 261.658 509.522 261.658C507.634 261.658 506.28 262.706 505.46 264.803C504.653 266.886 504.249 269.998 504.249 274.139C504.249 278.279 504.653 281.411 505.46 283.533C506.28 285.643 507.621 286.697 509.483 286.697C511.358 286.697 512.693 285.643 513.487 283.533C514.295 281.424 514.698 278.292 514.698 274.139V274.139Z" fill="black"/>
<path d="M605.915 288.455H602.795V266.442H595.064V263.703H613.611V266.442H605.915V288.455Z" fill="black"/>
<path d="M25.851 290.007C25.5894 289.319 25.4912 223.957 25.6325 144.757L25.8895 0.75665H28.3895H30.8895L31.1427 146.007L31.396 291.257H28.8612C27.4671 291.257 26.1125 290.694 25.8509 290.007H25.851ZM37.636 146.073L37.8892 0.75665H40.3892H42.8892V145.757V290.757L40.1358 291.073L37.3825 291.39L37.636 146.073ZM60.3893 146.307V1.25666H66.3927H72.396L72.1428 146.007L71.8896 290.757L66.1396 291.057L60.3896 291.356L60.3893 146.307ZM78.3893 146.257V1.25666H80.8893H83.3893V146.257V291.257H80.8893H78.3893V146.257ZM294.056 290.59C293.689 290.223 293.389 224.973 293.389 145.59V1.25666H296.389H299.389V146.257V291.257H297.056C295.773 291.257 294.423 290.957 294.056 290.59V290.59ZM305.636 146.073L305.889 0.756679H308.389H310.889V145.757V290.757L308.136 291.073L305.382 291.39L305.636 146.073ZM521.389 146.316C521.389 60.3519 521.759 1.14591 522.299 0.812433C522.799 0.503192 523.924 0.524778 524.799 0.860401C526.243 1.41434 526.389 14.838 526.389 146.364V291.257H523.889H521.389V146.316ZM544.389 146.49C544.389 66.7949 544.625 1.35444 544.913 1.06652C545.201 0.778592 546.552 0.756329 547.916 1.01708L550.396 1.49113L550.143 146.124L549.89 290.757L547.14 291.073L544.39 291.39L544.389 146.49ZM562.056 290.59C561.689 290.223 561.389 224.973 561.389 145.59V1.25666H564.389H567.389V146.257V291.257H565.056C563.773 291.257 562.423 290.957 562.056 290.59V290.59ZM573.389 146.323V1.25666H576.393H579.396L579.143 146.007L578.89 290.757L576.14 291.073L573.39 291.39L573.389 146.323ZM264.804 250.34C264.262 249.795 264.262 1.71813 264.804 1.17332C265.032 0.944171 267.732 0.910792 270.804 1.0992L276.389 1.44174V125.757V250.072L270.804 250.414C267.732 250.602 265.032 250.569 264.804 250.34V250.34ZM89.3893 125.853V1.44968L94.3953 1.10317C97.1486 0.912565 99.8486 0.906676 100.395 1.08995C101.047 1.30844 101.389 44.2842 101.389 125.84V250.257H95.3893H89.3893V125.853ZM119.071 249.605C118.713 249.247 118.41 193.261 118.397 125.191C118.373 -5.07197 118.204 -0.114337 122.639 1.03604C124.294 1.46524 124.389 8.25251 124.389 125.873V250.257H122.056C120.773 250.257 119.43 249.964 119.071 249.605V249.605ZM136.389 125.973C136.389 57.5624 136.576 1.40249 136.804 1.17332C137.032 0.944171 139.619 0.904248 142.554 1.08468L147.889 1.41272L147.652 125.585L147.414 249.757L141.902 250.057L136.39 250.356L136.389 125.973ZM159.389 125.757C159.389 43.5067 159.729 1.21424 160.389 1.13166C160.939 1.06291 162.177 0.950425 163.139 0.881638C164.796 0.763301 164.903 7.40588 165.143 125.507L165.397 250.257H162.393H159.389L159.389 125.757ZM183.389 125.857V1.45805L187.872 1.10152C190.337 0.905441 192.812 0.897616 193.372 1.08414C194.055 1.3117 194.389 42.3616 194.389 125.84V250.257H188.889H183.389V125.857ZM200.389 125.757V1.25666H203.389H206.389V125.757V250.257H203.389H200.389V125.757ZM223.389 125.757V1.25666H229.389H235.389V125.757V250.257H229.389H223.389V125.757ZM241.389 125.757V1.25666H244.389H247.389V125.757V250.257H244.389H241.389V125.757ZM282.389 125.757V1.25666H284.889H287.389V125.757V250.257H284.889H282.389V125.757ZM317.389 125.757V1.25666H325.889H334.389V125.757V250.257H325.889H317.389V125.757ZM346.389 125.823V1.25666H349.393H352.397L352.143 125.507L351.889 249.757L349.139 250.073L346.389 250.389V125.823L346.389 125.823ZM357.389 125.757V1.25666H363.389H369.389V125.757V250.257H363.389H357.389V125.757ZM381.389 125.923C381.389 57.54 381.577 1.4025 381.806 1.17334C382.035 0.944185 384.509 0.912579 387.305 1.10318L392.389 1.4497V125.853V250.257H386.889H381.389V125.923ZM398.389 125.757V1.25666H404.389H410.389V125.757V250.257H404.389H398.389V125.757ZM416.389 125.757V1.25666H421.889H427.389V125.757V250.257H421.889H416.389V125.757ZM439.389 125.816C439.389 43.1979 439.728 1.16509 440.398 0.7511C440.953 0.408145 442.303 0.411929 443.398 0.759419C445.372 1.38594 445.389 2.45603 445.389 125.824V250.257H442.389H439.389V125.816V125.816ZM456.389 125.757V1.25666H465.389H474.389V125.757V250.257H465.389H456.389V125.757ZM480.389 125.923C480.389 57.54 480.577 1.4025 480.806 1.17334C481.035 0.944185 483.509 0.912579 486.305 1.10318L491.389 1.4497V125.853V250.257H485.889H480.389V125.923ZM503.389 125.84C503.389 44.2843 503.732 1.30853 504.383 1.09003C504.93 0.906687 507.63 0.912628 510.383 1.10327L515.389 1.44973V125.853V250.257H509.389H503.389V125.84V125.84Z" fill="black"/>
<path d="M441.696 3.35485e-05C441.1 -0.00162566 440.571 0.0576007 440.139 0.324851C440.136 0.326469 440.048 0.390617 440.021 0.420816C439.994 0.451052 439.977 0.478214 439.962 0.501988C439.932 0.54961 439.916 0.586536 439.903 0.620098C439.877 0.687222 439.864 0.742562 439.851 0.80466C439.824 0.928855 439.798 1.07788 439.777 1.26234C439.736 1.63126 439.703 2.14718 439.666 2.8273C439.592 4.18755 439.523 6.18871 439.46 8.83616C439.334 14.131 439.227 22.0059 439.142 32.4508C438.974 53.3406 438.891 84.5074 438.891 125.817V250.755H442.39H445.889V125.824C445.889 64.1403 445.882 33.0361 445.631 17.2589C445.505 9.37029 445.327 5.32139 445.04 3.1521C444.897 2.06745 444.739 1.44437 444.487 1.00397C444.234 0.563572 443.815 0.365037 443.549 0.280545C442.946 0.0890367 442.293 0.00169654 441.696 3.35485e-05H441.696ZM523.421 0.0959981C522.91 0.0861713 522.431 0.138397 522.034 0.383877C522.031 0.385181 521.906 0.498561 521.879 0.538926C521.851 0.579253 521.838 0.609515 521.827 0.634876C521.805 0.68556 521.798 0.720029 521.79 0.752986C521.774 0.818901 521.763 0.880056 521.753 0.952283C521.734 1.09674 521.718 1.27865 521.701 1.52069C521.668 2.00477 521.636 2.70484 521.605 3.61715C521.543 5.44175 521.484 8.11772 521.428 11.5896C521.318 18.5333 521.22 28.6541 521.14 41.4493C520.98 67.0397 520.889 103.334 520.889 146.316V291.754H523.886H526.891V146.361C526.891 80.5977 526.85 44.365 526.632 24.4931C526.524 14.5572 526.371 8.71314 526.153 5.30023C526.044 3.59378 525.921 2.49637 525.769 1.77169C525.693 1.40934 525.615 1.13965 525.503 0.915388C525.391 0.691148 525.226 0.48614 524.979 0.391274C524.478 0.199047 523.933 0.10581 523.421 0.0959837V0.0959981ZM121.175 0.19933C120.88 0.205377 120.555 0.302778 120.289 0.516737C120.023 0.730696 119.812 1.0319 119.639 1.43209C118.949 3.03284 118.603 6.35657 118.348 13.8189C117.838 28.7436 117.885 60.0582 117.897 125.189C117.903 159.225 117.982 190.239 118.104 212.79C118.165 224.066 118.239 233.229 118.318 239.594C118.358 242.776 118.401 245.259 118.444 246.961C118.465 247.812 118.48 248.471 118.503 248.925C118.514 249.152 118.527 249.324 118.54 249.456C118.546 249.522 118.552 249.578 118.562 249.633C118.566 249.661 118.573 249.689 118.584 249.729C118.59 249.749 118.598 249.769 118.614 249.803C118.629 249.838 118.716 249.957 118.717 249.958C119.069 250.31 119.531 250.429 120.112 250.556C120.693 250.683 121.374 250.755 122.054 250.755H124.888V125.876C124.888 67.0654 124.868 35.9643 124.637 19.5029C124.522 11.2722 124.351 6.70311 124.106 4.13383C123.983 2.8492 123.852 2.07053 123.663 1.53541C123.569 1.26786 123.454 1.05638 123.301 0.885803C123.148 0.715233 122.943 0.600484 122.762 0.553618C122.25 0.420881 121.764 0.187003 121.175 0.199287L121.175 0.19933ZM25.3874 0.2584L25.1289 144.759C25.0582 184.359 25.0525 220.501 25.0911 246.828C25.11 259.992 25.1433 270.701 25.1871 278.164C25.2098 281.896 25.2336 284.813 25.2608 286.823C25.2759 287.828 25.291 288.608 25.305 289.149C25.3088 289.299 25.3163 289.389 25.3201 289.503H25.1281L25.3791 290.182C25.5957 290.752 26.1221 291.093 26.7374 291.348C27.3527 291.604 28.0991 291.754 28.8634 291.754H31.8973L31.6388 146.006L31.3878 0.2584H28.3908H25.3874ZM37.3904 0.2584L37.1394 146.073L36.8809 291.954L40.1954 291.57L43.3917 291.201V145.755V0.2584H40.3873H37.3904ZM305.39 0.2584L305.139 146.073L304.88 291.954L308.195 291.57L311.391 291.201V145.755V0.2584H308.387H305.39ZM546.003 0.339586C545.709 0.344499 545.446 0.36567 545.213 0.413405C544.979 0.461103 544.764 0.508113 544.556 0.716062C544.555 0.717185 544.45 0.865512 544.438 0.900624C544.425 0.935774 544.419 0.956022 544.415 0.974429C544.407 1.01109 544.404 1.03612 544.401 1.06303C544.394 1.11681 544.391 1.17513 544.386 1.24759C544.376 1.39249 544.365 1.59289 544.356 1.8529C544.339 2.37297 544.322 3.13139 544.305 4.11913C544.271 6.0946 544.24 8.98574 544.209 12.6969C544.146 20.1192 544.094 30.8167 544.046 43.9961C543.951 70.355 543.891 106.638 543.891 146.486V291.954L547.198 291.57L550.387 291.201L550.646 146.125L550.897 1.07779L548.01 0.524148C547.296 0.387556 546.59 0.32991 546.003 0.339586H546.003ZM163.104 0.383877C162.133 0.453269 160.903 0.562989 160.328 0.634876C160.326 0.635201 160.117 0.70707 160.114 0.708695C160.112 0.710305 160.023 0.781375 159.996 0.812027C159.942 0.873369 159.925 0.913732 159.908 0.952283C159.872 1.02939 159.855 1.09099 159.841 1.15158C159.812 1.27275 159.795 1.40999 159.775 1.58711C159.734 1.94133 159.693 2.44017 159.657 3.10778C159.584 4.44301 159.52 6.42414 159.457 9.05758C159.332 14.3245 159.224 22.1943 159.14 32.628C158.972 53.4953 158.889 84.6322 158.889 125.758V250.755H162.395H165.902L165.643 125.507C165.523 66.4564 165.435 35.2702 165.171 18.8534C165.039 10.6449 164.868 6.13528 164.617 3.64666C164.492 2.40235 164.353 1.67158 164.152 1.17373C164.052 0.924805 163.932 0.717664 163.739 0.56841C163.546 0.419157 163.29 0.370559 163.104 0.383863V0.383877ZM191.332 0.450329C190.32 0.45353 189.079 0.506302 187.833 0.605363L182.887 0.996603V125.854V250.755H188.889H194.89V125.839C194.89 84.0993 194.808 52.9652 194.639 32.2368C194.555 21.8725 194.449 14.115 194.322 8.92475C194.258 6.32964 194.183 4.37407 194.108 3.05615C194.07 2.39719 194.032 1.89646 193.99 1.54286C193.969 1.36606 193.952 1.22894 193.923 1.10733C193.909 1.04652 193.889 0.995299 193.857 0.92277C193.841 0.886486 193.826 0.844132 193.783 0.789896C193.762 0.762683 193.697 0.703453 193.694 0.701299C193.692 0.699167 193.535 0.613609 193.532 0.612702C193.286 0.530761 193.02 0.50336 192.654 0.479813C192.287 0.45638 191.839 0.448817 191.332 0.450329H191.332ZM98.2245 0.457884C97.1229 0.460306 95.7513 0.509484 94.3638 0.605522L88.8864 0.981998V125.854V250.756H95.3899H101.886V125.839C101.886 85.0607 101.802 53.9286 101.635 32.9603C101.551 22.4762 101.449 14.5297 101.325 9.19066C101.263 6.52114 101.198 4.50996 101.126 3.14489C101.088 2.46235 101.048 1.93769 101.008 1.57255C100.989 1.39 100.968 1.25227 100.941 1.12964C100.926 1.06829 100.919 1.00948 100.89 0.937707C100.875 0.901801 100.856 0.860528 100.816 0.804818C100.797 0.77685 100.73 0.71839 100.727 0.716235C100.725 0.714077 100.56 0.613735 100.558 0.612903C100.303 0.52741 100.031 0.51058 99.6424 0.487411C99.2536 0.464356 98.7759 0.456808 98.2251 0.457941L98.2245 0.457884ZM506.554 0.457884C506.003 0.45667 505.525 0.464313 505.136 0.487368C504.748 0.510423 504.476 0.527315 504.221 0.612846C504.219 0.6137 504.054 0.714023 504.051 0.716178C504.049 0.718336 503.983 0.77692 503.963 0.804775C503.922 0.860447 503.904 0.901758 503.889 0.937663C503.859 1.00944 503.851 1.06824 503.837 1.12958C503.81 1.25222 503.791 1.39732 503.771 1.57987C503.73 1.94501 503.689 2.4623 503.653 3.14483C503.58 4.5099 503.515 6.52109 503.453 9.1906C503.33 14.5296 503.227 22.4761 503.143 32.9603C502.976 53.9286 502.892 85.0607 502.892 125.839V250.755H509.388H515.892V125.854V0.981825L510.414 0.605349C509.027 0.509273 507.655 0.46013 506.554 0.457711V0.457884ZM138.655 0.472633C138.125 0.480948 137.679 0.50324 137.334 0.53907C137.161 0.556834 137.015 0.582539 136.883 0.612889C136.752 0.643125 136.641 0.62573 136.448 0.819582C136.447 0.820478 136.342 0.984598 136.33 1.01888C136.318 1.05327 136.311 1.06821 136.308 1.08533C136.3 1.11972 136.295 1.14286 136.293 1.16652C136.288 1.21387 136.289 1.26663 136.285 1.32892C136.278 1.45349 136.27 1.62278 136.263 1.84565C136.249 2.29137 136.232 2.94017 136.219 3.78709C136.192 5.48091 136.17 7.96306 136.145 11.1468C136.095 17.5144 136.05 26.6917 136.012 38.0021C135.937 60.623 135.886 91.7663 135.886 125.972V250.881L141.925 250.556L147.912 250.231L148.148 125.588L148.391 0.945045L142.582 0.583347C141.103 0.492449 139.715 0.456277 138.655 0.472604L138.655 0.472633ZM266.731 0.480188C266.178 0.486991 265.715 0.504372 265.358 0.539258C265.179 0.556643 265.027 0.575926 264.893 0.605709C264.758 0.635567 264.65 0.618184 264.45 0.819784C264.448 0.821912 264.318 1.04935 264.31 1.08552C264.302 1.1218 264.298 1.14819 264.295 1.17411C264.288 1.22589 264.285 1.2751 264.28 1.34388C264.271 1.4815 264.266 1.67425 264.258 1.91967C264.242 2.4105 264.221 3.12073 264.206 4.04565C264.176 5.89552 264.15 8.5917 264.125 12.0107C264.074 18.8487 264.033 28.5896 264 40.2612C263.932 63.6044 263.896 94.6802 263.896 125.758C263.896 156.836 263.932 187.912 264 211.255C264.034 222.927 264.074 232.668 264.125 239.506C264.15 242.925 264.177 245.614 264.206 247.463C264.221 248.388 264.242 249.106 264.258 249.597C264.266 249.842 264.271 250.028 264.28 250.165C264.285 250.234 264.288 250.291 264.295 250.342C264.298 250.368 264.302 250.395 264.31 250.431C264.318 250.467 264.448 250.687 264.45 250.689C264.65 250.891 264.758 250.874 264.893 250.903C265.027 250.933 265.179 250.952 265.358 250.97C265.715 251.005 266.178 251.029 266.731 251.036C267.836 251.05 269.289 251.006 270.835 250.911L276.888 250.541V125.758V0.974443L270.835 0.597967C269.289 0.5031 267.836 0.466212 266.731 0.479856V0.480188ZM383.586 0.480188C383.078 0.486613 382.65 0.504372 382.317 0.539258C382.15 0.556643 382.01 0.582613 381.881 0.613076C381.752 0.643691 381.639 0.633869 381.453 0.819784C381.452 0.820679 381.339 0.98471 381.327 1.01907C381.316 1.05346 381.316 1.06836 381.313 1.08552C381.305 1.11991 381.301 1.14301 381.298 1.1667C381.292 1.21414 381.287 1.26682 381.283 1.32911C381.276 1.45368 381.268 1.62304 381.261 1.84584C381.247 2.2914 381.237 2.94069 381.224 3.78727C381.197 5.48044 381.168 7.95713 381.143 11.1396C381.093 17.5046 381.048 26.6817 381.01 37.9876C380.934 60.5993 380.892 91.7285 380.892 125.921V250.756H386.886H392.887V125.854V0.982156L387.336 0.60568C385.926 0.509567 384.602 0.467239 383.586 0.480202L383.586 0.480188ZM482.585 0.480188C482.077 0.486613 481.649 0.504372 481.315 0.539258C481.148 0.556643 481.009 0.582613 480.88 0.613076C480.75 0.643691 480.637 0.633869 480.451 0.819784C480.45 0.820679 480.345 0.98471 480.333 1.01907C480.321 1.05346 480.315 1.06836 480.311 1.08552C480.304 1.11991 480.299 1.14301 480.296 1.1667C480.291 1.21414 480.285 1.26682 480.282 1.32911C480.274 1.45368 480.274 1.62304 480.267 1.84584C480.253 2.2914 480.236 2.94069 480.222 3.78727C480.195 5.48044 480.166 7.95713 480.141 11.1396C480.092 17.5046 480.046 26.6817 480.008 37.9876C479.933 60.5993 479.89 91.7285 479.89 125.921V250.756H485.892H491.886V125.854V0.982156L486.342 0.60568C484.932 0.509567 483.6 0.467239 482.585 0.480202L482.585 0.480188ZM59.8904 0.753332V146.309V291.88L66.165 291.555L72.3879 291.23L72.6464 146.006L72.8974 0.752972H66.3939L59.8904 0.753332ZM77.8874 0.753332V146.257V291.754H80.8918H83.8889V146.257V0.752986H80.8918L77.8874 0.753332ZM199.888 0.753332V125.758V250.756H203.387H206.886V125.758V0.753332H203.387H199.888ZM222.89 0.753332V125.758V250.756H229.386H235.889V125.758V0.753332H229.386H222.89ZM240.887 0.753332V125.758V250.756H244.386H247.892V125.758V0.753332H244.386H240.887ZM281.886 0.753332V125.758V250.756H284.89H287.887V125.758V0.753332H284.89H281.886ZM292.892 0.753332V145.593C292.892 185.286 292.963 221.439 293.084 247.722C293.145 260.863 293.219 271.536 293.298 278.947C293.338 282.653 293.38 285.547 293.424 287.525C293.445 288.514 293.468 289.274 293.49 289.799C293.502 290.061 293.507 290.262 293.52 290.411C293.526 290.486 293.533 290.545 293.542 290.603C293.547 290.632 293.553 290.659 293.564 290.699C293.57 290.719 293.579 290.738 293.594 290.773C293.609 290.808 293.703 290.941 293.705 290.943C294.057 291.295 294.523 291.418 295.107 291.548C295.692 291.678 296.375 291.755 297.056 291.755H299.891V146.257V0.752986H296.392L292.892 0.753332ZM316.891 0.753332V125.758V250.756H325.889H334.888V125.758V0.753332H325.889H316.891ZM345.887 0.753332V125.374V125.825V250.948L349.194 250.571L352.39 250.202L352.641 125.507L352.9 0.753318H349.393L345.887 0.753332ZM356.886 0.753332V125.758V250.756H363.389H369.893V125.758V0.753332H363.389H356.886ZM397.892 0.753332V125.758V250.756H404.388H410.892V125.758V0.753332H404.388H397.892ZM415.889 0.753332V125.758V250.756H421.891H427.892V125.758V0.753332H421.891H415.889ZM455.892 0.753332V125.758V250.756H465.392H474.893V125.758V0.752986H465.392L455.892 0.753332ZM560.892 0.753332V145.593C560.892 185.286 560.963 221.439 561.084 247.722C561.144 260.863 561.218 271.536 561.298 278.947C561.338 282.653 561.38 285.547 561.423 287.525C561.445 288.514 561.467 289.274 561.49 289.799C561.501 290.061 561.514 290.262 561.527 290.411C561.533 290.486 561.533 290.545 561.542 290.603C561.546 290.632 561.553 290.659 561.564 290.699C561.569 290.719 561.579 290.738 561.593 290.773C561.608 290.808 561.703 290.941 561.704 290.943C562.056 291.295 562.522 291.418 563.107 291.548C563.691 291.678 564.375 291.755 565.055 291.755H567.89V146.257V0.752986H564.391L560.892 0.753332ZM572.887 0.753332V146.324V291.954L576.195 291.57L579.391 291.201L579.642 146.006L579.9 0.752972H576.394L572.887 0.753332ZM441.696 0.99692C442.187 0.998288 442.755 1.07716 443.247 1.23314C443.474 1.30529 443.49 1.27896 443.616 1.49889C443.742 1.71882 443.908 2.2539 444.044 3.28531C444.316 5.34811 444.509 9.39576 444.634 17.274C444.885 33.0304 444.893 64.1407 444.893 125.825V249.759H442.39H439.888V125.817C439.888 84.5088 439.97 53.3427 440.139 32.4582C440.223 22.0159 440.33 14.1428 440.456 8.8583C440.519 6.21604 440.59 4.21935 440.663 2.87897C440.699 2.20878 440.737 1.70567 440.774 1.37307C440.786 1.26932 440.793 1.21826 440.803 1.15162C440.975 1.08129 441.272 0.995417 441.696 0.996589L441.696 0.99692ZM523.399 1.09254C523.794 1.1001 524.244 1.18536 524.617 1.32876C524.55 1.30306 524.561 1.26821 524.61 1.3658C524.659 1.46323 524.728 1.66389 524.794 1.9785C524.927 2.60772 525.048 3.68178 525.156 5.36678C525.372 8.73679 525.527 14.5707 525.636 24.5006C525.853 44.3605 525.887 80.5982 525.887 146.361V290.758H523.886H521.886V146.316C521.886 103.335 521.984 67.0436 522.144 41.4567C522.224 28.6633 522.322 18.5419 522.432 11.6044C522.487 8.13559 522.54 5.46691 522.602 3.65407C522.633 2.74765 522.666 2.05633 522.698 1.59452C522.71 1.42312 522.716 1.31438 522.727 1.21066C522.879 1.15563 523.082 1.08647 523.399 1.09255V1.09254ZM121.19 1.19587C121.44 1.19058 121.914 1.36584 122.511 1.52069C122.537 1.52749 122.532 1.51691 122.563 1.55017C122.592 1.58343 122.651 1.67875 122.718 1.86758C122.851 2.24523 122.997 2.97994 123.116 4.22978C123.355 6.72948 123.518 11.2953 123.633 19.5177C123.863 35.9624 123.891 67.0657 123.891 125.876V249.759H122.053C121.45 249.759 120.827 249.684 120.326 249.574C119.883 249.477 119.609 249.33 119.529 249.286C119.52 249.182 119.516 249.059 119.506 248.873C119.485 248.434 119.461 247.786 119.44 246.939C119.397 245.245 119.354 242.759 119.314 239.579C119.235 233.219 119.169 224.065 119.108 212.79C118.986 190.242 118.9 159.223 118.894 125.189C118.882 60.0577 118.836 28.7231 119.344 13.8484C119.598 6.41104 120.037 3.04754 120.562 1.83067C120.693 1.52646 120.816 1.36653 120.909 1.29179C121.002 1.21707 121.064 1.19844 121.189 1.19583L121.19 1.19587ZM26.3913 1.25495H28.3918H30.3923L30.6433 146.006L30.8942 290.758H28.8642C28.2344 290.758 27.5981 290.623 27.1221 290.426C26.6587 290.233 26.3956 289.966 26.3396 289.843C26.3371 289.812 26.3282 289.777 26.3245 289.724C26.3169 289.586 26.3094 289.385 26.3018 289.119C26.2867 288.588 26.2716 287.811 26.2576 286.809C26.2311 284.803 26.2054 281.887 26.1839 278.157C26.14 270.696 26.1075 259.984 26.0879 246.821C26.0482 220.495 26.0614 184.358 26.1321 144.759L26.3913 1.25495ZM38.3869 1.25495H40.3874H42.3879V145.755V290.308L40.0773 290.573L37.8849 290.824L38.1359 146.073L38.3869 1.25495ZM306.386 1.25495H308.387H310.387V145.755V290.308L308.077 290.573L305.884 290.824L306.135 146.073L306.386 1.25495ZM546.017 1.33614C546.518 1.32783 547.169 1.38175 547.819 1.50591L549.893 1.90453L549.642 146.125L549.391 290.308L547.08 290.573L544.888 290.824V146.486C544.888 106.639 544.948 70.3605 545.043 44.0035C545.09 30.8249 545.15 20.1235 545.213 12.7043C545.244 8.99464 545.275 6.111 545.309 4.14127C545.326 3.15641 545.343 2.39887 545.36 1.8898C545.368 1.67111 545.375 1.5188 545.383 1.39521C545.405 1.38765 545.383 1.39375 545.412 1.38766C545.556 1.35818 545.767 1.3401 546.017 1.33598L546.017 1.33614ZM163.141 1.38043C163.145 1.38572 163.176 1.40991 163.229 1.54283C163.352 1.84693 163.499 2.54291 163.621 3.75002C163.864 6.16424 164.042 10.6681 164.174 18.8681C164.438 35.2682 164.527 66.4567 164.647 125.507L164.898 249.759H162.395H159.893V125.758C159.893 84.6336 159.976 53.4974 160.144 32.6354C160.228 22.2043 160.329 14.3436 160.454 9.08712C160.516 6.45888 160.581 4.48159 160.653 3.16685C160.689 2.50948 160.727 2.01238 160.764 1.69785C160.77 1.65038 160.773 1.64101 160.779 1.60189C161.37 1.5362 162.307 1.44062 163.141 1.38045V1.38043ZM191.34 1.44687C191.83 1.44532 192.262 1.45519 192.595 1.47635C192.8 1.48958 192.866 1.51 192.978 1.52803C192.986 1.57852 192.992 1.60059 193.001 1.66828C193.038 1.98176 193.075 2.46682 193.111 3.11513C193.185 4.41178 193.255 6.35716 193.318 8.94683C193.445 14.1262 193.551 21.8826 193.636 32.2441C193.805 52.967 193.887 84.1005 193.887 125.839V249.759H188.889H183.892V125.854V1.91932L187.915 1.60192C189.135 1.5049 190.359 1.45002 191.34 1.44688L191.34 1.44687ZM98.2245 1.45444C98.7612 1.45326 99.2256 1.46274 99.5828 1.48391C99.8077 1.49714 99.8795 1.51755 99.9962 1.53558C100.004 1.58906 100.011 1.61189 100.019 1.68321C100.057 2.01142 100.094 2.52371 100.13 3.19649C100.201 4.54206 100.267 6.55562 100.329 9.22011C100.452 14.5491 100.555 22.4861 100.639 32.9677C100.806 53.9308 100.89 85.062 100.89 125.839V249.759H95.3901H89.8906V125.854V1.91932L94.4305 1.60192C95.7963 1.50735 97.1514 1.45664 98.2248 1.45429L98.2245 1.45444ZM506.554 1.45444C507.627 1.4568 508.982 1.5075 510.348 1.60206L514.888 1.91947V125.854V249.759H509.388H503.889V125.839C503.889 85.0621 503.973 53.9308 504.14 32.9677C504.223 22.4861 504.326 14.5492 504.45 9.22016C504.512 6.55566 504.578 4.5421 504.649 3.19654C504.685 2.52375 504.724 2.01146 504.76 1.68325C504.768 1.61193 504.774 1.58911 504.782 1.53563C504.898 1.51748 504.968 1.49748 505.195 1.48395C505.553 1.46279 506.017 1.45333 506.554 1.45447V1.45444ZM138.67 1.47673C139.694 1.46085 141.067 1.4979 142.523 1.58747L147.388 1.88278L147.152 125.581L146.915 249.287L141.874 249.56L136.891 249.826V125.972C136.891 91.7674 136.934 60.6289 137.009 38.0097C137.046 26.7002 137.092 17.5192 137.142 11.1544C137.167 7.97206 137.196 5.49058 137.223 3.80207C137.237 2.95781 137.246 2.31092 137.26 1.87539C137.265 1.73351 137.27 1.65338 137.275 1.55799C137.33 1.54967 137.365 1.54326 137.437 1.5357C137.733 1.50508 138.158 1.48451 138.67 1.47661L138.67 1.47673ZM266.746 1.47673C267.816 1.4635 269.251 1.50887 270.776 1.60222L275.892 1.91225V125.758V249.604L270.776 249.914C269.251 250.008 267.816 250.046 266.746 250.032C266.211 250.026 265.763 250.011 265.454 249.981C265.372 249.973 265.33 249.96 265.269 249.951C265.264 249.841 265.26 249.732 265.255 249.56C265.239 249.08 265.225 248.371 265.21 247.449C265.181 245.604 265.154 242.916 265.129 239.498C265.078 232.663 265.03 222.926 264.996 211.255C264.928 187.913 264.9 156.835 264.9 125.758C264.9 94.6805 264.929 63.6024 264.996 40.2609C265.03 28.5901 265.078 18.8528 265.129 12.0177C265.154 8.6002 265.181 5.90427 265.21 4.06007C265.225 3.13797 265.239 2.42879 265.255 1.94885C265.26 1.77794 265.264 1.67502 265.269 1.56499C265.33 1.55592 265.372 1.54345 265.454 1.53551C265.763 1.50527 266.211 1.48305 266.746 1.47644L266.746 1.47673ZM383.601 1.4843C384.579 1.47183 385.884 1.50773 387.27 1.60241L391.891 1.91982V125.854V249.759H386.886H381.888V125.921C381.888 91.7296 381.938 60.6052 382.014 37.9951C382.052 26.6901 382.097 17.5094 382.147 11.1472C382.172 7.96606 382.194 5.49003 382.221 3.8022C382.234 2.95828 382.251 2.31084 382.265 1.87551C382.269 1.73374 382.268 1.65347 382.272 1.55812C382.324 1.55018 382.353 1.54299 382.42 1.53581C382.702 1.50633 383.112 1.49038 383.601 1.48414L383.601 1.4843ZM482.6 1.4843C483.577 1.47183 484.882 1.50773 486.268 1.60241L490.889 1.91982V125.854V249.759H485.892H480.887V125.921C480.887 91.7296 480.937 60.6052 481.012 37.9951C481.05 26.6901 481.096 17.5094 481.145 11.1472C481.17 7.96606 481.192 5.49003 481.219 3.8022C481.233 2.95828 481.25 2.31084 481.263 1.87551C481.268 1.7337 481.274 1.65347 481.278 1.55812C481.328 1.55056 481.354 1.54262 481.418 1.53581C481.7 1.50633 482.111 1.49038 482.6 1.48414V1.4843ZM60.8869 1.75744H66.3938H71.8933L71.6423 146.007L71.3914 290.286L66.1133 290.559L60.8869 290.825V146.309L60.8869 1.75744ZM78.8913 1.75744H80.8918H82.8923V146.257V290.758H80.8918H78.8913V146.257V1.75744ZM200.892 1.75744H203.387H205.889V125.758V249.759H203.387H200.892V125.758V1.75744ZM223.886 1.75744H229.386H234.893V125.758V249.759H229.386H223.886V125.758V1.75744ZM241.891 1.75744H244.386H246.888V125.758V249.759H244.386H241.891V125.758V1.75744ZM282.89 1.75744H284.89H286.891V125.758V249.759H284.89H282.89V125.758V1.75744ZM293.889 1.75744H296.391H298.886V146.257V290.758H297.056C296.453 290.758 295.824 290.685 295.321 290.573C294.878 290.475 294.613 290.321 294.524 290.271C294.514 290.146 294.497 289.986 294.487 289.754C294.465 289.243 294.442 288.488 294.42 287.502C294.377 285.532 294.335 282.643 294.295 278.939C294.215 271.532 294.148 260.862 294.088 247.721C293.967 221.441 293.889 185.284 293.889 145.593L293.889 1.75744ZM317.887 1.75744H325.889H333.891V125.758V249.759H325.889H317.887V125.758V1.75744ZM346.891 1.75744H349.393H351.896L351.645 125.507L351.386 249.309L349.083 249.575L346.891 249.826V126.275V125.825L346.891 1.75744ZM357.89 1.75744H363.389H368.889V125.758V249.759H363.389H357.89V125.758V1.75744ZM398.889 1.75744H404.388H409.888V125.758V249.759H404.388H398.889V125.758V1.75744ZM416.886 1.75744H421.891H426.888V125.758V249.759H421.891H416.886V125.758V1.75744ZM456.888 1.75744H465.392H473.889V125.758V249.759H465.392H456.888V125.758V1.75744ZM561.888 1.75744H564.391H566.886V146.257V290.758H565.055C564.453 290.758 563.824 290.685 563.32 290.573C562.878 290.475 562.613 290.321 562.523 290.271C562.514 290.146 562.496 289.986 562.486 289.754C562.464 289.243 562.441 288.488 562.42 287.502C562.377 285.532 562.334 282.643 562.294 278.939C562.215 271.532 562.148 260.862 562.088 247.721C561.967 221.441 561.888 185.284 561.888 145.593L561.888 1.75744ZM573.891 1.75744H576.394H578.896L578.645 146.007L578.387 290.308L576.084 290.574L573.891 290.825V146.324V1.75744Z" fill="black"/>
</g>
<defs>
<clipPath id="clip0">
<rect width="613.611" height="291.954" fill="white"/>
</clipPath>
</defs>
</svg>
