<svg width="121" height="61" viewBox="0 0 121 61" fill="none" xmlns="http://www.w3.org/2000/svg">
<path fill-rule="evenodd" clip-rule="evenodd" d="M33.0827 60.6876C33.1669 60.8008 33.3709 60.8248 33.8628 60.9066L33.8628 60.9067C35.5234 61.1831 37.0537 60.7917 37.7185 59.9206C38.1932 59.2986 38.2623 59.0748 38.2646 58.1483C38.2668 57.3498 38.2455 57.2343 38.028 56.866C37.7348 56.3692 37.2567 55.9408 36.7427 55.7143L36.3549 55.5435L36.7942 55.2488C37.8484 54.5417 38.2501 53.5401 37.919 52.4444C37.5606 51.2583 36.1402 50.7082 34.2716 51.0319C33.1482 51.2265 33.1127 51.2506 33.1127 51.8183C33.1127 52.074 33.1368 52.3073 33.1663 52.3367C33.1958 52.3661 33.4148 52.3137 33.653 52.2202C34.323 51.9571 35.2253 51.8431 35.6818 51.9638C36.3608 52.1433 36.7251 52.6293 36.7251 53.3555C36.7251 53.9108 36.6098 54.2124 36.2571 54.5794C35.8372 55.0165 35.6991 55.0671 34.7867 55.118L33.9497 55.1646L33.923 55.6253L33.8964 56.0861L34.4076 56.0874C36.0461 56.0918 36.9388 56.8031 36.9388 58.1044C36.9388 58.5199 36.8869 58.7731 36.7477 59.0368C36.2367 60.0044 35.3327 60.2454 33.7949 59.824L33.0245 59.6129V60.1733C33.0245 60.4508 33.0156 60.5975 33.0827 60.6876ZM53.6275 60.8169L54.1263 60.9444V60.9443C54.2232 60.9692 54.6805 60.9809 55.1425 60.9705C56.1955 60.9469 56.7626 60.7021 57.4177 59.9882C57.9652 59.3915 58.1752 58.8215 58.1769 57.9288C58.1785 57.0002 57.9547 56.4334 57.342 55.8149C56.7887 55.2563 56.2217 55.0011 55.1726 54.8387L54.5228 54.738V53.5252V52.3123H56.2409H57.959V51.7419V51.1715H55.7123H53.4655V53.4532V55.7348L53.9721 55.7365C54.7224 55.7388 55.6234 55.9564 56.0377 56.2355C56.69 56.675 56.9588 57.5829 56.7335 58.5857C56.6125 59.1242 56.1398 59.7312 55.6984 59.9149C55.3176 60.0733 54.6814 60.0656 54.0823 59.8952C53.5697 59.7493 53.3673 59.6755 53.2943 59.7425C53.2364 59.7957 53.2602 59.9377 53.275 60.2031C53.3048 60.7335 53.3055 60.7347 53.6275 60.8169ZM62.659 57.6218C62.937 59.4166 63.5992 60.4258 64.7726 60.8432C65.4378 61.0799 66.4145 61.0205 67.0642 60.7039C67.6832 60.4022 68.2873 59.7403 68.5395 59.0874C68.8334 58.3265 68.8672 57.3085 68.623 56.5775C68.3759 55.838 67.7628 55.1402 67.1169 54.8635C66.6293 54.6546 65.8083 54.6087 65.2907 54.7615C64.9567 54.8601 64.3417 55.2895 64.1557 55.554C64.0857 55.6535 63.9999 55.735 63.965 55.735C63.8402 55.735 64.02 54.2553 64.2161 53.6683C64.3749 53.193 64.5175 52.967 64.91 52.5683C65.3405 52.1311 65.4693 52.0532 65.9107 51.9638C66.4727 51.85 67.0876 51.9356 67.8491 52.2338L68.2676 52.3976V51.838V51.2783L67.6288 51.1159C66.7366 50.8891 65.7296 50.9096 65.061 51.1683C64.4043 51.4223 63.57 52.2306 63.2189 52.953C62.6324 54.1594 62.41 56.0143 62.659 57.6218ZM67.2877 59.0777C67.153 59.3637 66.935 59.6546 66.7648 59.7753C66.4086 60.0279 65.6278 60.0991 65.2223 59.9159C64.8551 59.7501 64.3541 59.1478 64.2242 58.716C63.6801 56.907 64.4984 55.4378 65.9715 55.5788C66.5512 55.6343 66.9528 55.9472 67.2691 56.5899C67.4824 57.0234 67.5179 57.2012 67.5182 57.8412C67.5186 58.4634 67.4804 58.6684 67.2877 59.0777ZM82.5603 58.1589C82.4733 59.4859 83.1437 60.447 84.4463 60.8624C84.7446 60.9575 85.1193 60.9902 85.6724 60.9692C86.6584 60.9319 87.3854 60.6417 87.9079 60.0771C88.4291 59.514 88.5585 59.2027 88.602 58.4074C88.6342 57.8201 88.6084 57.6264 88.4492 57.2579C88.2334 56.7581 87.743 56.2452 87.0499 55.7944L86.5807 55.4893L86.9737 55.2199C88.7137 54.0276 88.6806 51.7156 86.9149 51.1124C86.6176 51.0108 86.2009 50.9581 85.7031 50.9588C85.0264 50.9599 84.8813 50.9909 84.3626 51.2453C83.6893 51.5754 83.3112 51.9859 83.149 52.563C82.8736 53.5427 83.1626 54.5378 83.9138 55.1963L84.3074 55.5414L83.8755 55.8572C83.0629 56.4513 82.6216 57.2236 82.5603 58.1589ZM87.3092 58.1043C87.5106 58.7736 87.1862 59.478 86.514 59.8311C86.0979 60.0497 85.478 60.091 84.9386 59.936C84.3101 59.7555 83.7745 58.9368 83.7745 58.1566C83.7745 57.7264 84.1381 56.9637 84.5623 56.5043L84.984 56.0475L85.7112 56.4836C86.5359 56.9782 87.1613 57.6125 87.3092 58.1043ZM86.7641 52.3628C87.315 52.9878 87.2007 53.8003 86.4549 54.5611C86.2006 54.8206 85.9395 55.0308 85.8747 55.0285C85.6494 55.02 84.7381 54.3186 84.5138 53.9811C84.0922 53.3465 84.1736 52.5161 84.6905 52.1787C85.3336 51.759 86.3081 51.8456 86.7641 52.3628ZM93.0258 60.721L93.7087 60.8569C94.0881 60.9323 94.7108 60.9821 95.11 60.9688C95.7118 60.9489 95.9219 60.8992 96.4038 60.6629C97.3641 60.192 98.0705 59.2325 98.4536 57.8786C98.6757 57.0935 98.7236 54.8991 98.5391 53.9642C98.1515 52.0007 97.095 50.9581 95.4929 50.9581C94.3229 50.9581 93.3681 51.5532 92.8533 52.6034C92.0293 54.2843 92.5565 56.2637 94.0335 57.0345C94.408 57.2299 94.5928 57.2673 95.1845 57.2675C96.0089 57.2677 96.3703 57.1156 96.9798 56.5119L97.3654 56.1299L97.3085 56.8503C97.2148 58.0343 96.7828 59.1019 96.2044 59.5792C95.8934 59.8357 95.3393 60.0315 94.9183 60.0332C94.5295 60.0348 93.6286 59.8325 93.18 59.6427C93.0423 59.5845 93.0258 59.6384 93.0258 60.1493V60.721ZM97.1669 54.3169C97.1669 55.206 96.8917 55.8066 96.3356 56.1312C95.8904 56.391 95.1681 56.4238 94.7212 56.2043C94.3349 56.0147 93.9438 55.4642 93.8148 54.9287C93.6433 54.2166 93.742 53.2044 94.0308 52.7136C94.5773 51.7848 95.6464 51.6328 96.4633 52.3679C96.9343 52.7917 97.1669 53.4361 97.1669 54.3169ZM102.401 57.9289C102.806 59.5178 103.544 60.4871 104.646 60.8793C105.447 61.1644 106.587 60.9292 107.284 60.335C108.316 59.4553 108.9 57.4828 108.758 55.3597C108.574 52.6119 107.348 50.9598 105.493 50.9598C104.031 50.9598 102.982 51.9535 102.44 53.8513C102.167 54.8062 102.146 56.9313 102.401 57.9289ZM107.387 55.941C107.387 58.2954 106.948 59.5981 106.038 59.9415C105.734 60.0562 105.216 60.0539 104.92 59.9365C104.037 59.5857 103.596 58.2579 103.602 55.9666C103.607 54.0437 103.874 52.9294 104.474 52.3319C105.221 51.5878 106.403 51.8474 106.893 52.8631C107.237 53.5763 107.387 54.5144 107.387 55.941ZM1.71169 59.2663C1.39153 60.0743 1.12957 60.7574 1.12957 60.7843C1.12957 60.8112 1.37721 60.8215 1.67987 60.8071L2.23018 60.781L2.5901 59.8349C2.78806 59.3145 2.98928 58.8497 3.03725 58.8019C3.09082 58.7486 3.83477 58.7242 4.96539 58.7388L6.8063 58.7626L7.19901 59.7937L7.59172 60.8249H8.28664C8.66884 60.8249 8.96351 60.7953 8.94146 60.7591C8.91942 60.7229 8.45544 59.5678 7.91041 58.1922C7.36539 56.8166 6.63694 54.9803 6.29165 54.1115L5.66384 52.5318L5.02542 52.506C4.47742 52.4839 4.37887 52.5025 4.32954 52.6377C4.27569 52.7852 3.03355 55.9304 1.71169 59.2663ZM4.91672 53.9488C5.01191 54.0428 6.39184 57.7127 6.35559 57.7753C6.30732 57.8588 3.42037 57.8627 3.42037 57.7793C3.42037 57.6331 4.87552 53.908 4.91672 53.9488ZM113.809 56.437C113.17 58.054 112.518 59.7027 112.36 60.1009L112.074 60.8249H112.624H113.174L113.408 60.2325C113.536 59.9067 113.716 59.4427 113.808 59.2014L113.975 58.7626L115.871 58.739L117.768 58.7154L117.924 59.1339C118.01 59.3641 118.189 59.8289 118.323 60.1667L118.566 60.781L119.232 60.8067C119.599 60.8208 119.899 60.8133 119.899 60.79C119.899 60.7479 119.621 60.0404 117.745 55.2962C117.201 53.9206 116.73 52.7243 116.699 52.6377C116.649 52.5027 116.551 52.4839 116.01 52.506L115.379 52.5318L115.175 53.0145C115.062 53.28 114.447 54.8201 113.809 56.437ZM116.896 56.4809C117.141 57.1084 117.342 57.6711 117.343 57.7315C117.343 57.8148 116.995 57.8412 115.89 57.8412C114.785 57.8412 114.436 57.8148 114.436 57.7315C114.436 57.6711 114.616 57.1479 114.836 56.5687C115.056 55.9895 115.359 55.1799 115.509 54.7696C115.659 54.3594 115.81 53.9922 115.844 53.9536C115.879 53.9151 116.029 54.2113 116.179 54.6118C116.328 55.0124 116.651 55.8535 116.896 56.4809ZM12.6878 60.154C12.6725 60.3401 12.6813 60.5479 12.7075 60.6158C12.7474 60.7196 13.2697 60.7356 15.9514 60.7163L19.1476 60.6933V60.2545V59.8157L17.848 59.7914L16.5484 59.7671V55.3435V50.9199L16.0418 51.0842C15.7632 51.1745 14.8909 51.4504 14.1034 51.6972L12.6717 52.1459V52.4873C12.6717 52.675 12.7014 52.8458 12.7378 52.8667C12.7741 52.8876 13.2003 52.8123 13.6849 52.6993C14.1695 52.5863 14.7345 52.4675 14.9405 52.4351L15.3149 52.3764V56.0718V59.7671L14.0153 59.7914L12.7157 59.8157L12.6878 60.154ZM22.8466 59.1223C22.5825 59.5592 22.5397 59.7069 22.5397 60.1835L22.5397 60.7371H25.2753H28.0108L27.9846 60.1887L27.9584 59.6402L26.042 59.6165C24.5962 59.5987 24.1258 59.5664 24.1265 59.4849C24.1283 59.2649 24.552 58.4846 24.9239 58.0167C25.1348 57.7512 25.7883 57.0601 26.3761 56.4809C27.7262 55.1507 28.0256 54.6202 28.0256 53.5589C28.0256 52.7222 27.8292 52.2222 27.2995 51.7102C26.5905 51.0249 25.4138 50.7747 24.1238 51.0351C23.7174 51.1171 23.2542 51.2386 23.0945 51.3051C22.8113 51.4229 22.8041 51.4393 22.8041 51.9569C22.8041 52.249 22.8251 52.488 22.8508 52.488C22.8765 52.488 23.1327 52.3894 23.4201 52.2689C24.1609 51.9583 25.0416 51.8234 25.5019 51.95C26.4948 52.223 26.9235 53.2326 26.5342 54.3811C26.3089 55.0454 26.0683 55.3697 24.8989 56.5854C23.7811 57.7473 23.3723 58.2527 22.8466 59.1223ZM46.2152 59.4208C46.2254 60.0724 46.2352 60.6351 46.2372 60.6713C46.2391 60.7075 46.4984 60.7371 46.8134 60.7371H47.3861V59.4647V58.1922H48.0469H48.7077V57.7095V57.2269H48.0469H47.3861V54.1992V51.1716L46.7913 51.1749L46.1966 51.1783L44.1922 54.1523L42.1877 57.1264V57.6576V58.1889L44.1922 58.2125L46.1966 58.2361L46.2152 59.4208ZM46.1746 53.0166C46.2109 53.0154 46.2407 53.9623 46.2407 55.1207V57.2269H44.7783H43.3158L43.4787 56.9738C44.3474 55.624 46.1226 53.0182 46.1746 53.0166ZM75.8804 55.0329C73.7845 58.7403 73.6183 59.0932 73.39 60.3203L73.3125 60.7371L74.072 60.7357L74.8316 60.7344L75.063 59.7924C75.1903 59.2743 75.4432 58.4752 75.6251 58.0167C76.0489 56.9482 77.1405 54.7672 77.9468 53.3781C78.5481 52.3421 78.5762 52.2687 78.5762 51.7327V51.1716H75.7127H72.8492V51.7844V52.3973L75.0966 52.4207L77.344 52.4441L75.8804 55.0329ZM0.00567291 23.8353C-0.00674819 36.9155 0.00190995 47.6668 0.0249206 47.7271H0.0249306C0.0514411 47.7967 0.24531 47.8368 0.554279 47.8368H1.04179L1.01961 23.9449L0.997436 0.0530603H0.512843H0.0282507L0.00567291 23.8353ZM2.0547 0.0530603L2.03252 23.9449L2.01031 47.8368H3.02386H4.03742L4.01524 23.9449L3.99306 0.0530603H3.02388H2.0547ZM5.99699 23.8353C5.98457 36.9155 5.99323 47.6668 6.01624 47.7271C6.04276 47.7967 6.23663 47.8368 6.54559 47.8368H7.03311L7.01093 23.9449L6.98875 0.0530603H6.50416H6.01957L5.99699 23.8353ZM9.05926 9.28706e-06V23.9184L9.05924 47.8368H9.544H10.0287L10.0066 23.9449L9.98439 0.0530583L9.52182 0.0265338L9.05926 9.28706e-06ZM11.0417 0.0530593L11.0195 23.9449L10.9973 47.8368H11.5262H12.0552L12.0424 34.0107C12.1307 34.1345 12.23 34.2479 12.3405 34.351C12.5389 34.5335 12.7707 34.6831 13.0359 34.7998L13.0238 47.8368H13.5085H13.9933V35.0601C14.2321 35.0934 14.4879 35.11 14.7605 35.11C14.8594 35.11 14.9562 35.1079 15.0506 35.1036V47.8368H16.0198H16.9889V34.515C17.6666 34.0108 18.0055 33.1861 18.0055 32.041V27.74H16.9889V24.0108C16.9889 22.6451 16.989 21.3051 16.989 20H17.1813V12.74H16.989C16.9891 5.26519 16.9892 0.143842 16.9893 0.118877C16.9895 0.0826774 16.5534 0.0418946 16.0201 0.0282459L15.0506 0.00343289V23.9201H15.0506V33.605C14.9597 33.6183 14.863 33.625 14.7605 33.625C14.4513 33.625 14.1956 33.5633 13.9933 33.4398V23.9184V1.02821e-05L13.5307 0.0265348L13.0682 0.0530593L13.046 23.9449L13.0424 27.74H12.0366L12.033 23.9449L12.0109 0.0530593H11.5263H11.0417ZM19.041 20L19.0373 23.9449L19.0151 47.8368H19.4998H19.9846V23.9184V20H20.6833V17.206H21.0419V23.923V47.8368H21.5265H22.0111V23.923V17.206H23.0084L23.0021 23.9449L22.9986 27.74H22.6155V35H22.9919L22.9799 47.8368H23.5089H24.0379L24.0259 35H24.4745V32.349H25.6075L26.064 33.1293L26.064 47.8368H26.5488H27.0335L27.0214 34.7657L27.1585 35H28.014L28.0021 47.8368H29.0156H30.0292L30.007 23.9449L30.0032 19.8206C30.3021 19.9457 30.6422 20.0303 31.0235 20.0743L31.0199 23.9449L30.9977 47.8368H32.0111H33.0245V29.203H35.0123V35H35.051L35.051 47.8368H35.5357H36.0205L36.0086 35H36.9043V29.203H37.0064L36.989 47.8368H37.518H38.047L38.0297 29.203H39.0159V47.8368H39.5005H39.985V23.923V20H41.0423V23.9184L41.0423 27.74H40.3508V35H41.0423L41.0423 47.8368H41.5271H42.0118L41.9999 35H42.2428V32.074H42.997C42.9943 41.1445 43.0035 47.6801 43.0215 47.7271C43.0515 47.8058 43.3387 47.8368 44.0353 47.8368H45.0072V32.074H45.0148V35H45.9922C45.9921 42.5176 46.0012 47.6854 46.0171 47.7271C46.0436 47.7967 46.2375 47.8368 46.5465 47.8368H47.034L47.0118 23.9449L46.9896 0.053057H46.505H46.0204L46.0017 19.7438L45.0072 18.2057V16.6799C45.1397 16.5725 45.2551 16.4509 45.3534 16.315C45.6101 15.963 45.7384 15.5157 45.7384 14.973C45.7384 14.291 45.4964 13.7483 45.0124 13.345C45.0107 13.3435 45.009 13.3421 45.0072 13.3406V0.0034309L44.016 0.0282439L43.0248 0.053057L43.0127 12.74C43.0083 12.74 43.0039 12.74 42.9994 12.74H41.9792L41.9675 0.0530513L41.5049 0.0265268L41.0423 2.32176e-06V12.74H39.985V0.00917893H39.5005H39.0159V23.923V27.74H38.0283L38.0248 23.9449L38.0026 0.0530593H37.518H37.0334L37.0113 23.9449L37.0077 27.74H36.0018L35.9983 23.9449L35.9761 0.0530583L35.5136 0.0265338L35.051 9.28706e-06V23.9184L35.051 27.74H33.0245V23.9201V19.9408C34.2911 19.5731 34.9244 18.6065 34.9244 17.041V12.74H33.0324V17.074C33.0324 17.1529 33.0298 17.2288 33.0245 17.3017V0.00343323L32.0333 0.0282463L31.0421 0.0530593L31.025 18.4997C30.5666 18.2894 30.3374 17.8141 30.3374 17.074V12.74H29.9966L29.9848 0.0530593H29.0156H28.0465L28.0243 23.9449L28.0202 28.2858C27.745 28.0732 27.4099 27.9228 27.015 27.8344L27.0113 23.9449L26.9892 0.0530583L26.5266 0.0265338L26.064 9.28706e-06V23.9184L26.064 27.74H24.0192L24.0157 23.9449L24.0066 14.203H24.4343V12.74H24.0053L23.9935 0.0530593H23.5089H23.0243L23.0125 12.74H22.0111V0.00917893H21.5265H21.0419V12.74H19.9846V1.02821e-05L19.522 0.0265348L19.0595 0.0530593L19.0477 12.74H18.7913V20H19.041ZM21.0419 14.203H20.6833V15.743H21.0419V14.203ZM22.0111 15.743H23.0098L23.0112 14.203H22.0111V15.743ZM28.017 31.7351C27.8285 31.8745 27.6084 31.9874 27.3565 32.074L28.0158 33.0936L28.017 31.7351ZM41.9823 16.007L41.9806 14.17H42.7354C42.834 14.17 42.926 14.1755 43.0114 14.1865L43.0097 15.9913C42.9248 16.0018 42.8334 16.007 42.7354 16.007H41.9823ZM41.9835 17.349L41.9896 23.9449L41.9932 27.74H42.2428V30.611H42.9975C42.9984 28.4599 43 26.1852 43.0022 23.8353L43.0076 18.1714L42.5264 17.349H41.9835ZM45.0072 20V23.9201V30.611H45.0148V27.74H45.9947C45.9956 26.4683 45.9966 25.1638 45.9979 23.8353L46.0015 20H45.0072ZM26.064 30.9944C25.9868 31.0028 25.9043 31.007 25.8165 31.007H24.4745V29.17H25.8165C26.5498 29.17 26.9165 29.4743 26.9165 30.083C26.9165 30.4057 26.8248 30.6403 26.6415 30.787C26.502 30.8986 26.3096 30.9677 26.064 30.9944ZM48.9878 35C48.9878 42.5176 48.9968 47.6854 49.0128 47.7271C49.0393 47.7967 49.2332 47.8368 49.5421 47.8368H50.0296L50.0177 35H51.0101L50.9982 47.8368H52.0117H53.0253L53.0133 35H54.0057L53.9938 47.8368H54.5228H55.0517L55.0296 23.9449L55.0217 15.4812L55.7777 16.04C55.8608 16.0041 55.9417 15.963 56.0206 15.9168V23.923V47.8368H56.5052H56.9898V23.923V14.9102C57.0243 14.8483 57.0567 14.7849 57.0867 14.72C57.2334 14.412 57.3067 14.093 57.3067 13.763C57.3067 13.4037 57.2077 13.0883 57.0097 12.817C57.0032 12.8077 56.9966 12.7986 56.9898 12.7896V0.00917661H56.5052H56.0206V12.4137C55.7737 12.4324 55.5498 12.5229 55.3487 12.685C55.1411 12.8511 55.0314 13.0924 55.0198 13.4088L55.0074 0.053057H54.5228H54.0382L54.016 23.9449L54.0125 27.74H53.0066L53.0031 23.9449L52.9994 20H53.6634V12.74H52.9927L52.9809 0.053057H52.0117H51.0425L51.0278 15.8893L49.9983 14.0964L49.9853 0.053057H49.5007H49.0161L49.0041 12.74H47.1184V20H48.7904V16.337L48.7464 14.995H48.7574L49.0015 15.4733L48.9935 23.8353C48.9923 25.1638 48.9912 26.4683 48.9904 27.74H48.5149V35H48.9878ZM50.011 27.74H51.0168L51.0204 23.9449L51.0249 19.0639L50.0013 17.2813L50.0075 23.9449L50.011 27.74ZM51.0155 29.203H50.4069V30.677H51.0141L51.0155 29.203ZM53.0106 32.052H53.3989V30.677H53.0093L53.008 29.203H54.0111L54.0071 33.537H53.012L53.0106 32.052ZM51.0128 32.052H50.4069V33.537H51.0114L51.0128 32.052ZM55.0199 13.5235L55.0217 15.4778C55.3212 15.3533 55.5879 15.1887 55.8217 14.984C55.8947 14.9199 55.961 14.8548 56.0206 14.7886V14.3629C55.9851 14.3663 55.9444 14.368 55.8987 14.368C55.7007 14.368 55.5027 14.2947 55.3047 14.148C55.1261 14.0106 55.0312 13.8024 55.0199 13.5235ZM59.0163 14.203V23.923V27.74H58.6018V35H59.0163V47.8368H59.5009H59.9855V35H60.4938V32.58H61.0428V47.8368H61.5274H62.012V32.5795C62.855 32.5675 63.5149 32.3587 63.9918 31.953C64.0076 31.9395 64.0231 31.9259 64.0384 31.9121V47.8368H64.523H65.0076V23.923V0.00917661H64.523H64.0384V12.74H62.012V0.00917661H61.5274H61.0428V12.74H59.9855V0.00917661H59.5009H59.0163V12.74H57.9771V14.203H59.0163ZM59.9855 14.203V23.923V27.74H61.0428V23.923V20H60.3531V14.203H59.9855ZM62.012 20V23.923V27.7406C62.855 27.7527 63.5149 27.9652 63.9918 28.378C64.0076 28.3912 64.0231 28.4046 64.0384 28.4182V23.923V14.203H62.2451V20H62.012ZM61.0428 29.159H60.4938V31.161H61.0428V29.159ZM62.012 31.1319V29.1881C62.5619 29.2825 62.8368 29.6065 62.8368 30.16C62.8368 30.7135 62.5619 31.0375 62.012 31.1319ZM66.0208 0.053057L65.9987 23.9449L65.9951 27.74H65.9495V35H65.9884L65.9765 47.8368H66.5054H67.0344L67.0225 35H67.8085V32.349H68.0173L68.0029 47.8368H69.0165H70.03L70.0174 34.1879L70.4925 35H71.0105L70.9986 47.8456L71.5054 47.8193L72.0122 47.7929V35H72.5825L72.0122 34.118V30.8544C72.1064 30.5956 72.1535 30.3018 72.1535 29.973C72.1535 29.6721 72.1064 29.3983 72.0122 29.1517V23.923V17.58C72.8673 17.5765 73.5376 17.3741 74.0229 16.9728L74.0165 23.9493L74.012 28.715C73.8457 28.9049 73.7014 29.1189 73.5793 29.357C73.2933 29.9143 73.1503 30.5853 73.1503 31.37C73.1503 32.1547 73.2933 32.8257 73.5793 33.383C73.7002 33.6187 73.8428 33.8315 74.0071 34.0213L73.9943 47.8456L74.501 47.8193L75.0078 47.7929V34.774C75.3148 34.9143 75.6526 35.0106 76.0211 35.063V47.8426L77.0123 47.8178L78.0035 47.7929V34.9275C78.2174 34.8602 78.4184 34.7744 78.6063 34.67C78.757 34.5853 78.8979 34.4905 79.0289 34.3854L79.0164 47.8368H79.5012H79.9859V33.0528C80.1735 32.5664 80.2673 32.0055 80.2673 31.37C80.2673 30.7345 80.1735 30.1736 79.9859 29.6872V23.9184V20H81.0432V23.923V47.8368H81.5278H82.0124V35H84.0389V47.8368H85.008H85.9772V34.8218C86.3838 34.6988 86.7362 34.5121 87.0345 34.2616V47.8368H87.5191H88.0037V32.7043C88.1137 32.3072 88.1686 31.8624 88.1686 31.37C88.1686 30.8776 88.1137 30.4328 88.0037 30.0357V23.923V0.00917661H87.5191H87.0345V12.74H85.9772V0.00917661H85.008H84.0389V15.1648L83.8456 14.731L82.8226 12.74H82.0124V0.00917661H81.5278H81.0432V12.74H80.8646L81.0432 13.0611V17.6578L79.9859 14.637V7.96034e-06L79.5233 0.0265325L79.0608 0.053057L79.049 12.74H78.0035V0.0530546L77.0123 0.0282416L76.0211 0.00342858V15.6841L75.0078 18.5666V0.053057H74.5232H74.0386L74.0263 13.3607C73.5407 12.9505 72.8693 12.7436 72.0122 12.74V0.053057H71.5276H71.043L71.0312 12.74H69.9975L69.9857 0.053057H69.0165H68.0473L68.0251 23.9449L68.0216 27.74H67.0157L67.0122 23.9449L66.99 0.053057H66.5054H66.0208ZM68.0203 29.17H67.8085V31.007H68.0186L68.0203 29.17ZM70.0142 30.7535L70.013 29.4316C70.1713 29.583 70.2505 29.8002 70.2505 30.083C70.2505 30.3821 70.1717 30.6056 70.0142 30.7535ZM70.0114 27.7758L70.0079 23.9449L70.0042 20H70.5485V17.58H71.0267L71.0208 23.9493L71.017 28.0717C70.7298 27.9232 70.3946 27.8246 70.0114 27.7758ZM71.0134 31.94C70.9122 31.9901 70.8046 32.0348 70.6905 32.074L71.0128 32.5725L71.0134 31.94ZM72.0122 16.1404C72.5984 16.0583 72.8915 15.7315 72.8915 15.16C72.8915 14.5885 72.5984 14.2617 72.0122 14.1796V16.1404ZM71.0299 14.159L71.028 16.161H70.5485V14.159H71.0299ZM75.0078 20V23.923V27.9744C75.3148 27.8306 75.6526 27.7319 76.0211 27.6782V23.923V20H75.0078ZM78.0035 18.361V23.923V27.8171C78.2174 27.886 78.4184 27.974 78.6063 28.081C78.7592 28.1648 78.9019 28.2593 79.0345 28.3647L79.0386 23.9449L79.0438 18.361H78.0035ZM76.0211 29.2555C75.8171 29.3508 75.6448 29.4947 75.5043 29.687C75.2256 30.061 75.0863 30.622 75.0863 31.37C75.0863 32.118 75.2256 32.6827 75.5043 33.064C75.6448 33.2526 75.8171 33.3937 76.0211 33.4872V29.2555ZM78.0035 32.9258V29.8228C78.222 30.1919 78.3313 30.7076 78.3313 31.37C78.3313 32.0324 78.222 32.551 78.0035 32.9258ZM78.0035 17.074V14.7736L78.156 14.192H78.178L78.497 15.336L79.025 17.074H78.0035ZM82.0124 14.804V23.923V27.74H84.0389V23.923V20H83.4276V17.349L82.0124 14.804ZM85.9772 16.1664V23.923V27.9182C86.3838 28.0412 86.7362 28.2279 87.0345 28.4784V23.923V14.2651L85.9772 16.1664ZM84.0389 29.17H83.4606V33.57H84.0389V29.17ZM85.9772 32.7361V30.0104C86.1475 30.3566 86.2326 30.8098 86.2326 31.37C86.2326 31.9302 86.1475 32.3855 85.9772 32.7361ZM88.9984 20L88.9948 23.9449L88.9725 47.8368H89.5015H90.0305L90.0178 34.2211C90.0588 34.2661 90.1016 34.3094 90.1461 34.351C90.3857 34.5714 90.6741 34.7439 91.0111 34.8683L90.999 47.8368H92.0126H93.0261L93.0143 35.0943C93.3812 35.0675 93.712 35.0066 94.0067 34.9115L93.9947 47.8368H94.4795H94.9642V34.3758C95.5288 33.8645 95.8111 33.0863 95.8111 32.041V27.74H94.9642V23.9184V17.0501L96.6581 20H97.0162L97.0126 23.9449L97.0063 30.6781C96.9792 30.898 96.9657 31.1286 96.9657 31.37C96.9657 31.6076 96.9788 31.8347 97.005 32.0514L96.9904 47.8368H97.5193H98.0483L98.0357 34.2434C98.2093 34.4065 98.4027 34.5487 98.6157 34.67C98.7437 34.7401 98.8775 34.8018 99.0172 34.8552V47.8368H99.5018H99.9863V35.0817C100.161 35.1006 100.342 35.11 100.53 35.11C100.706 35.11 100.878 35.1009 101.044 35.0828L101.044 47.8368H101.528H102.013L102.001 34.8546C102.187 34.7826 102.364 34.6954 102.532 34.593C102.702 34.4883 102.856 34.3655 102.994 34.2245L102.982 47.8368H103.511H104.04L104.017 23.9449L104.014 20.0575C104.251 20.0157 104.466 19.9489 104.657 19.857C104.794 19.79 104.92 19.7124 105.034 19.6241L105.03 23.9449L105.027 27.74H104.233V29.203H105.025L105.008 47.8368H105.493H105.978V29.203H106.609V35H108.004L108.004 47.8368H109.018H110.031L110.014 29.203H110.866V27.74H110.012L110.009 23.9449L109.987 0.0530497L108.995 0.0282366L108.004 0.00342361V23.9201V27.74H105.978V23.9184V20H106.868V16.084H105.978V14.8376L106.857 14.489C106.636 13.9761 106.343 13.5744 105.978 13.2839V0L105.515 0.0265264L105.053 0.0530509L105.041 12.8034C104.736 12.7123 104.391 12.657 104.007 12.6378L103.995 0.0530509H103.511H103.026L103.014 12.6752C102.641 12.7275 102.297 12.825 101.981 12.9677L101.969 0.053049L101.506 0.0265245L101.044 0V13.62C100.83 13.8389 100.649 14.0919 100.499 14.379C100.206 14.9363 100.059 15.6037 100.059 16.381C100.059 17.1803 100.199 17.8587 100.477 18.416C100.632 18.7256 100.821 18.9933 101.044 19.2192V23.9184V27.6576C100.874 27.6392 100.699 27.63 100.519 27.63C100.335 27.63 100.158 27.6394 99.9863 27.6583V23.923V0.00917661H99.5018H99.0172V23.923V27.8909C98.8777 27.9457 98.7438 28.009 98.6157 28.081C98.4005 28.2006 98.2054 28.3421 98.0303 28.5055L98.0261 23.9449L98.0224 20H98.7591V12.74H98.0157L98.0039 0.053057H97.5193H97.0347L97.0185 17.5458L96.5701 16.667L94.9642 13.8703V7.96034e-06L94.5016 0.0265325L94.0391 0.053057L94.0273 12.74H92.9936L92.9818 0.053057H92.0126H91.0434L91.0212 23.9449L91.0177 27.74H90.0118L90.0083 23.9449L90.0046 20H90.6042V12.74H89.9979L89.9861 0.053057H89.5015H89.0169L89.0052 12.74H88.7122V20H88.9984ZM93.0129 33.5739C93.6171 33.4202 93.9191 32.9202 93.9191 32.074V27.74H94.0134L94.0169 23.9449L94.0249 15.3317L93.8531 14.995H93.8421L93.8861 16.337V20H93.0003L93.004 23.9449L93.0129 33.5739ZM99.0172 30.3732C98.9402 30.6583 98.9017 30.9906 98.9017 31.37C98.9017 31.7593 98.9402 32.0989 99.0172 32.3889V30.3732ZM99.9863 33.5339C100.167 33.5946 100.37 33.625 100.596 33.625C100.756 33.625 100.906 33.6051 101.044 33.5653L101.044 29.1744C100.905 29.1348 100.752 29.115 100.585 29.115C100.366 29.115 100.166 29.1478 99.9863 29.2134V33.5339ZM101.997 30.288L101.999 32.4387L102.996 32.7199L102.998 29.8834L101.997 30.288ZM103 28.4976L103.004 23.9449L103.007 20.0943C102.643 20.062 102.303 19.9802 101.987 19.8488L101.991 23.9449L101.995 27.8781C102.17 27.9438 102.338 28.0224 102.499 28.114C102.687 28.2215 102.854 28.3494 103 28.4976ZM104.013 18.6599C104.337 18.6313 104.615 18.5354 104.844 18.372C104.918 18.3198 104.982 18.2603 105.036 18.1934L105.036 17.349H104.011L104.013 18.6599ZM104.01 16.084H105.038L105.039 14.96C104.939 14.6986 104.794 14.5012 104.602 14.368C104.433 14.25 104.235 14.1733 104.008 14.1378L104.01 16.084ZM103.013 14.2449L103.009 18.5282C102.784 18.4347 102.596 18.2946 102.446 18.108C102.146 17.7267 101.995 17.1473 101.995 16.37C101.995 15.6367 102.142 15.0793 102.435 14.698C102.594 14.4928 102.787 14.3418 103.013 14.2449ZM111.044 0.0530509L111.022 23.9449L110.999 47.8368H111.484H111.969V23.9184V0L111.506 0.0265264L111.044 0.0530509ZM113.026 0.00342527V23.923V47.8426L114.017 47.8178L115.009 47.7929V23.923V0.0530513L114.017 0.0282383L113.026 0.00342527ZM117.035 0.0530545L117.013 23.9449L116.991 47.8368H117.476H117.96V23.9184V5.5211e-06L117.498 0.02653L117.035 0.0530545ZM120.031 0.0530545L120.009 23.9493L119.986 47.8456L120.493 47.8193L121 47.7929V23.923V0.0530545H120.515H120.031Z" fill="black"/>
</svg>
